<mxfile host="app.diagrams.net" agent="Mozilla/5.0 (Windows NT 10.0; Win64; x64) AppleWebKit/537.36 (KHTML, like Gecko) Chrome/122.0.0.0 Safari/537.36" version="26.2.3">
  <diagram name="1 oldal" id="ZRo3TNaSbQ_DCoS2osNK">
    <mxGraphModel dx="-284" dy="1155" grid="1" gridSize="10" guides="1" tooltips="1" connect="1" arrows="1" fold="1" page="1" pageScale="1" pageWidth="827" pageHeight="1169" math="0" shadow="0">
      <root>
        <mxCell id="0" />
        <mxCell id="1" parent="0" />
        <mxCell id="tNXsENTEjhiDUSROjqKi-867" value="" style="rounded=0;whiteSpace=wrap;html=1;" parent="1" vertex="1">
          <mxGeometry x="2610" y="310" width="1080" height="480" as="geometry" />
        </mxCell>
        <mxCell id="tNXsENTEjhiDUSROjqKi-868" value="" style="rounded=0;whiteSpace=wrap;html=1;" parent="1" vertex="1">
          <mxGeometry x="2610" y="310" width="1080" height="120" as="geometry" />
        </mxCell>
        <mxCell id="tNXsENTEjhiDUSROjqKi-869" style="edgeStyle=orthogonalEdgeStyle;rounded=0;orthogonalLoop=1;jettySize=auto;html=1;exitX=0.5;exitY=0;exitDx=0;exitDy=0;" parent="1" source="tNXsENTEjhiDUSROjqKi-870" edge="1">
          <mxGeometry relative="1" as="geometry">
            <mxPoint x="3150" y="770" as="targetPoint" />
          </mxGeometry>
        </mxCell>
        <mxCell id="tNXsENTEjhiDUSROjqKi-870" value="" style="rounded=0;whiteSpace=wrap;html=1;" parent="1" vertex="1">
          <mxGeometry x="2610" y="770" width="1080" height="20" as="geometry" />
        </mxCell>
        <mxCell id="tNXsENTEjhiDUSROjqKi-871" value="" style="rounded=0;whiteSpace=wrap;html=1;" parent="1" vertex="1">
          <mxGeometry x="3590" y="310" width="100" height="120" as="geometry" />
        </mxCell>
        <mxCell id="tNXsENTEjhiDUSROjqKi-872" value="" style="rounded=0;whiteSpace=wrap;html=1;" parent="1" vertex="1">
          <mxGeometry x="2720" y="340" width="120" height="60" as="geometry" />
        </mxCell>
        <mxCell id="tNXsENTEjhiDUSROjqKi-873" value="" style="rounded=0;whiteSpace=wrap;html=1;" parent="1" vertex="1">
          <mxGeometry x="3320" y="370" width="120" height="60" as="geometry" />
        </mxCell>
        <mxCell id="tNXsENTEjhiDUSROjqKi-874" value="" style="rounded=0;whiteSpace=wrap;html=1;" parent="1" vertex="1">
          <mxGeometry x="2870" y="340" width="120" height="60" as="geometry" />
        </mxCell>
        <mxCell id="tNXsENTEjhiDUSROjqKi-875" value="" style="rounded=0;whiteSpace=wrap;html=1;" parent="1" vertex="1">
          <mxGeometry x="3170" y="370" width="120" height="60" as="geometry" />
        </mxCell>
        <mxCell id="tNXsENTEjhiDUSROjqKi-876" value="" style="rounded=0;whiteSpace=wrap;html=1;" parent="1" vertex="1">
          <mxGeometry x="3020" y="340" width="120" height="60" as="geometry" />
        </mxCell>
        <mxCell id="tNXsENTEjhiDUSROjqKi-877" value="" style="rounded=0;whiteSpace=wrap;html=1;" parent="1" vertex="1">
          <mxGeometry x="2680" y="430" width="940" height="340" as="geometry" />
        </mxCell>
        <mxCell id="tNXsENTEjhiDUSROjqKi-878" value="Kezdőlap" style="text;html=1;align=center;verticalAlign=middle;whiteSpace=wrap;rounded=0;" parent="1" vertex="1">
          <mxGeometry x="2720" y="340" width="120" height="60" as="geometry" />
        </mxCell>
        <mxCell id="tNXsENTEjhiDUSROjqKi-879" value="" style="rounded=0;whiteSpace=wrap;html=1;" parent="1" vertex="1">
          <mxGeometry x="2630" y="340" width="60" height="60" as="geometry" />
        </mxCell>
        <mxCell id="tNXsENTEjhiDUSROjqKi-880" value="&lt;div&gt;Logo&lt;/div&gt;" style="text;html=1;align=center;verticalAlign=middle;whiteSpace=wrap;rounded=0;" parent="1" vertex="1">
          <mxGeometry x="2630" y="340" width="60" height="60" as="geometry" />
        </mxCell>
        <mxCell id="tNXsENTEjhiDUSROjqKi-881" value="Zenék" style="text;html=1;align=center;verticalAlign=middle;whiteSpace=wrap;rounded=0;" parent="1" vertex="1">
          <mxGeometry x="2870" y="340" width="120" height="60" as="geometry" />
        </mxCell>
        <mxCell id="tNXsENTEjhiDUSROjqKi-882" value="Filmek/Sorozatok" style="text;html=1;align=center;verticalAlign=middle;whiteSpace=wrap;rounded=0;" parent="1" vertex="1">
          <mxGeometry x="3020" y="340" width="120" height="60" as="geometry" />
        </mxCell>
        <mxCell id="tNXsENTEjhiDUSROjqKi-883" value="Rendelési kosár" style="text;html=1;align=center;verticalAlign=middle;whiteSpace=wrap;rounded=0;" parent="1" vertex="1">
          <mxGeometry x="3170" y="380" width="120" height="60" as="geometry" />
        </mxCell>
        <mxCell id="tNXsENTEjhiDUSROjqKi-884" value="Footer (C)" style="text;html=1;align=center;verticalAlign=middle;whiteSpace=wrap;rounded=0;" parent="1" vertex="1">
          <mxGeometry x="2610" y="770" width="1080" height="20" as="geometry" />
        </mxCell>
        <mxCell id="tNXsENTEjhiDUSROjqKi-885" value="margin" style="text;html=1;align=center;verticalAlign=middle;whiteSpace=wrap;rounded=0;" parent="1" vertex="1">
          <mxGeometry x="2610" y="430" width="70" height="340" as="geometry" />
        </mxCell>
        <mxCell id="tNXsENTEjhiDUSROjqKi-886" value="margin" style="text;html=1;align=center;verticalAlign=middle;whiteSpace=wrap;rounded=0;" parent="1" vertex="1">
          <mxGeometry x="3620" y="430" width="70" height="340" as="geometry" />
        </mxCell>
        <mxCell id="tNXsENTEjhiDUSROjqKi-887" value="Fiók bej/reg" style="rounded=0;whiteSpace=wrap;html=1;" parent="1" vertex="1">
          <mxGeometry x="3595" y="350" width="90" height="40" as="geometry" />
        </mxCell>
        <mxCell id="tNXsENTEjhiDUSROjqKi-888" value="" style="rounded=0;whiteSpace=wrap;html=1;" parent="1" vertex="1">
          <mxGeometry x="3460" y="340" width="120" height="60" as="geometry" />
        </mxCell>
        <mxCell id="tNXsENTEjhiDUSROjqKi-889" value="Kapcsolat" style="text;html=1;align=center;verticalAlign=middle;whiteSpace=wrap;rounded=0;" parent="1" vertex="1">
          <mxGeometry x="3460" y="340" width="120" height="60" as="geometry" />
        </mxCell>
        <mxCell id="tNXsENTEjhiDUSROjqKi-890" value="Foglalási kosár" style="text;html=1;align=center;verticalAlign=middle;whiteSpace=wrap;rounded=0;" parent="1" vertex="1">
          <mxGeometry x="3320" y="380" width="120" height="60" as="geometry" />
        </mxCell>
        <mxCell id="tNXsENTEjhiDUSROjqKi-891" value="Kosár" style="rounded=0;whiteSpace=wrap;html=1;" parent="1" vertex="1">
          <mxGeometry x="3170" y="330" width="270" height="60" as="geometry" />
        </mxCell>
        <mxCell id="tNXsENTEjhiDUSROjqKi-892" value="A kosáron belül lesz külön rendelési és foglalási kosár" style="text;html=1;align=center;verticalAlign=middle;whiteSpace=wrap;rounded=0;" parent="1" vertex="1">
          <mxGeometry x="3310" y="240" width="200" height="30" as="geometry" />
        </mxCell>
        <mxCell id="tNXsENTEjhiDUSROjqKi-893" value="" style="endArrow=classic;html=1;rounded=0;entryX=0.37;entryY=0;entryDx=0;entryDy=0;shape=flexArrow;entryPerimeter=0;exitX=0.135;exitY=0.867;exitDx=0;exitDy=0;exitPerimeter=0;" parent="1" source="tNXsENTEjhiDUSROjqKi-892" target="tNXsENTEjhiDUSROjqKi-891" edge="1">
          <mxGeometry width="50" height="50" relative="1" as="geometry">
            <mxPoint x="3190" y="290" as="sourcePoint" />
            <mxPoint x="3070" y="370" as="targetPoint" />
          </mxGeometry>
        </mxCell>
        <mxCell id="tNXsENTEjhiDUSROjqKi-897" value="Rendelési kosár" style="rounded=0;whiteSpace=wrap;html=1;" parent="1" vertex="1">
          <mxGeometry x="2680" y="430" width="180" height="40" as="geometry" />
        </mxCell>
        <mxCell id="tNXsENTEjhiDUSROjqKi-898" value="Megrendelni kívánt termékek:" style="rounded=0;whiteSpace=wrap;html=1;" parent="1" vertex="1">
          <mxGeometry x="2680" y="490" width="180" height="60" as="geometry" />
        </mxCell>
        <mxCell id="tNXsENTEjhiDUSROjqKi-899" value="" style="rounded=0;whiteSpace=wrap;html=1;" parent="1" vertex="1">
          <mxGeometry x="2710" y="565" width="140" height="155" as="geometry" />
        </mxCell>
        <mxCell id="tNXsENTEjhiDUSROjqKi-900" value="" style="rounded=0;whiteSpace=wrap;html=1;" parent="1" vertex="1">
          <mxGeometry x="2895" y="565" width="145" height="155" as="geometry" />
        </mxCell>
        <mxCell id="tNXsENTEjhiDUSROjqKi-901" value="" style="rounded=0;whiteSpace=wrap;html=1;" parent="1" vertex="1">
          <mxGeometry x="3090" y="565" width="140" height="155" as="geometry" />
        </mxCell>
        <mxCell id="tNXsENTEjhiDUSROjqKi-902" value="" style="rounded=0;whiteSpace=wrap;html=1;" parent="1" vertex="1">
          <mxGeometry x="3280" y="565" width="140" height="155" as="geometry" />
        </mxCell>
        <mxCell id="trwgs1z1zUuKxBCwaUoy-1" value="kép" style="rounded=0;whiteSpace=wrap;html=1;" vertex="1" parent="1">
          <mxGeometry x="2720" y="570" width="60" height="70" as="geometry" />
        </mxCell>
        <mxCell id="trwgs1z1zUuKxBCwaUoy-2" value="kép" style="rounded=0;whiteSpace=wrap;html=1;" vertex="1" parent="1">
          <mxGeometry x="2900" y="570" width="60" height="70" as="geometry" />
        </mxCell>
        <mxCell id="trwgs1z1zUuKxBCwaUoy-3" value="kép" style="rounded=0;whiteSpace=wrap;html=1;" vertex="1" parent="1">
          <mxGeometry x="3100" y="570" width="60" height="70" as="geometry" />
        </mxCell>
        <mxCell id="trwgs1z1zUuKxBCwaUoy-4" value="kép" style="rounded=0;whiteSpace=wrap;html=1;" vertex="1" parent="1">
          <mxGeometry x="3290" y="570" width="60" height="70" as="geometry" />
        </mxCell>
        <mxCell id="trwgs1z1zUuKxBCwaUoy-5" value="cím" style="rounded=0;whiteSpace=wrap;html=1;" vertex="1" parent="1">
          <mxGeometry x="2790" y="570" width="50" height="30" as="geometry" />
        </mxCell>
        <mxCell id="trwgs1z1zUuKxBCwaUoy-6" value="cím" style="rounded=0;whiteSpace=wrap;html=1;" vertex="1" parent="1">
          <mxGeometry x="2970" y="570" width="50" height="30" as="geometry" />
        </mxCell>
        <mxCell id="trwgs1z1zUuKxBCwaUoy-7" value="cím" style="rounded=0;whiteSpace=wrap;html=1;" vertex="1" parent="1">
          <mxGeometry x="3170" y="570" width="50" height="30" as="geometry" />
        </mxCell>
        <mxCell id="trwgs1z1zUuKxBCwaUoy-8" value="cím" style="rounded=0;whiteSpace=wrap;html=1;" vertex="1" parent="1">
          <mxGeometry x="3360" y="570" width="50" height="30" as="geometry" />
        </mxCell>
        <mxCell id="trwgs1z1zUuKxBCwaUoy-9" value="előadó" style="rounded=0;whiteSpace=wrap;html=1;" vertex="1" parent="1">
          <mxGeometry x="2790" y="610" width="50" height="30" as="geometry" />
        </mxCell>
        <mxCell id="trwgs1z1zUuKxBCwaUoy-10" value="előadó" style="rounded=0;whiteSpace=wrap;html=1;" vertex="1" parent="1">
          <mxGeometry x="2970" y="610" width="50" height="30" as="geometry" />
        </mxCell>
        <mxCell id="trwgs1z1zUuKxBCwaUoy-11" value="előadó" style="rounded=0;whiteSpace=wrap;html=1;" vertex="1" parent="1">
          <mxGeometry x="3170" y="610" width="50" height="30" as="geometry" />
        </mxCell>
        <mxCell id="trwgs1z1zUuKxBCwaUoy-12" value="előadó" style="rounded=0;whiteSpace=wrap;html=1;" vertex="1" parent="1">
          <mxGeometry x="3360" y="610" width="50" height="30" as="geometry" />
        </mxCell>
        <mxCell id="trwgs1z1zUuKxBCwaUoy-13" value="ár" style="rounded=0;whiteSpace=wrap;html=1;" vertex="1" parent="1">
          <mxGeometry x="2770" y="650" width="70" height="30" as="geometry" />
        </mxCell>
        <mxCell id="trwgs1z1zUuKxBCwaUoy-14" value="ár" style="rounded=0;whiteSpace=wrap;html=1;" vertex="1" parent="1">
          <mxGeometry x="2950" y="650" width="70" height="30" as="geometry" />
        </mxCell>
        <mxCell id="trwgs1z1zUuKxBCwaUoy-15" value="ár" style="rounded=0;whiteSpace=wrap;html=1;" vertex="1" parent="1">
          <mxGeometry x="3150" y="650" width="70" height="30" as="geometry" />
        </mxCell>
        <mxCell id="trwgs1z1zUuKxBCwaUoy-16" value="ár" style="rounded=0;whiteSpace=wrap;html=1;" vertex="1" parent="1">
          <mxGeometry x="3340" y="650" width="70" height="30" as="geometry" />
        </mxCell>
        <mxCell id="trwgs1z1zUuKxBCwaUoy-17" value="formátum" style="rounded=0;whiteSpace=wrap;html=1;" vertex="1" parent="1">
          <mxGeometry x="2745" y="690" width="95" height="30" as="geometry" />
        </mxCell>
        <mxCell id="trwgs1z1zUuKxBCwaUoy-18" value="formátum" style="rounded=0;whiteSpace=wrap;html=1;" vertex="1" parent="1">
          <mxGeometry x="2925" y="690" width="95" height="30" as="geometry" />
        </mxCell>
        <mxCell id="trwgs1z1zUuKxBCwaUoy-19" value="formátum" style="rounded=0;whiteSpace=wrap;html=1;" vertex="1" parent="1">
          <mxGeometry x="3125" y="690" width="95" height="30" as="geometry" />
        </mxCell>
        <mxCell id="trwgs1z1zUuKxBCwaUoy-20" value="formátum" style="rounded=0;whiteSpace=wrap;html=1;" vertex="1" parent="1">
          <mxGeometry x="3315" y="690" width="95" height="30" as="geometry" />
        </mxCell>
        <mxCell id="trwgs1z1zUuKxBCwaUoy-21" value="x darab" style="rounded=0;whiteSpace=wrap;html=1;" vertex="1" parent="1">
          <mxGeometry x="2720" y="730" width="117.5" height="30" as="geometry" />
        </mxCell>
        <mxCell id="trwgs1z1zUuKxBCwaUoy-22" value="x darab" style="rounded=0;whiteSpace=wrap;html=1;" vertex="1" parent="1">
          <mxGeometry x="2908.75" y="730" width="117.5" height="30" as="geometry" />
        </mxCell>
        <mxCell id="trwgs1z1zUuKxBCwaUoy-23" value="x darab" style="rounded=0;whiteSpace=wrap;html=1;" vertex="1" parent="1">
          <mxGeometry x="3102.5" y="730" width="117.5" height="30" as="geometry" />
        </mxCell>
        <mxCell id="trwgs1z1zUuKxBCwaUoy-24" value="x darab" style="rounded=0;whiteSpace=wrap;html=1;" vertex="1" parent="1">
          <mxGeometry x="3290" y="730" width="117.5" height="30" as="geometry" />
        </mxCell>
        <mxCell id="trwgs1z1zUuKxBCwaUoy-25" value="-" style="rounded=0;whiteSpace=wrap;html=1;" vertex="1" parent="1">
          <mxGeometry x="2690" y="735" width="30" height="20" as="geometry" />
        </mxCell>
        <mxCell id="trwgs1z1zUuKxBCwaUoy-27" value="+" style="rounded=0;whiteSpace=wrap;html=1;" vertex="1" parent="1">
          <mxGeometry x="2837.5" y="735" width="30" height="20" as="geometry" />
        </mxCell>
        <mxCell id="trwgs1z1zUuKxBCwaUoy-28" value="-" style="rounded=0;whiteSpace=wrap;html=1;" vertex="1" parent="1">
          <mxGeometry x="2880" y="735" width="30" height="20" as="geometry" />
        </mxCell>
        <mxCell id="trwgs1z1zUuKxBCwaUoy-29" value="-" style="rounded=0;whiteSpace=wrap;html=1;" vertex="1" parent="1">
          <mxGeometry x="3072.5" y="735" width="30" height="20" as="geometry" />
        </mxCell>
        <mxCell id="trwgs1z1zUuKxBCwaUoy-30" value="-" style="rounded=0;whiteSpace=wrap;html=1;" vertex="1" parent="1">
          <mxGeometry x="3260" y="735" width="30" height="20" as="geometry" />
        </mxCell>
        <mxCell id="trwgs1z1zUuKxBCwaUoy-31" value="+" style="rounded=0;whiteSpace=wrap;html=1;" vertex="1" parent="1">
          <mxGeometry x="3026.25" y="735" width="30" height="20" as="geometry" />
        </mxCell>
        <mxCell id="trwgs1z1zUuKxBCwaUoy-32" value="+" style="rounded=0;whiteSpace=wrap;html=1;" vertex="1" parent="1">
          <mxGeometry x="3220" y="735" width="30" height="20" as="geometry" />
        </mxCell>
        <mxCell id="trwgs1z1zUuKxBCwaUoy-33" value="+" style="rounded=0;whiteSpace=wrap;html=1;" vertex="1" parent="1">
          <mxGeometry x="3407.5" y="735" width="30" height="20" as="geometry" />
        </mxCell>
        <mxCell id="trwgs1z1zUuKxBCwaUoy-34" value="Összesen fizetendő:" style="rounded=0;whiteSpace=wrap;html=1;" vertex="1" parent="1">
          <mxGeometry x="3460" y="565" width="113.75" height="50" as="geometry" />
        </mxCell>
        <mxCell id="trwgs1z1zUuKxBCwaUoy-36" value="Y összeg" style="rounded=0;whiteSpace=wrap;html=1;" vertex="1" parent="1">
          <mxGeometry x="3460" y="615" width="113.75" height="50" as="geometry" />
        </mxCell>
        <mxCell id="trwgs1z1zUuKxBCwaUoy-38" value="Rendelés" style="rounded=0;whiteSpace=wrap;html=1;" vertex="1" parent="1">
          <mxGeometry x="3490" y="695" width="120" height="60" as="geometry" />
        </mxCell>
      </root>
    </mxGraphModel>
  </diagram>
</mxfile>
